<?xml version="1.0" encoding="utf-8"?>
<!-- Designed by Vexels.com - 2019 All Rights Reserved - https://vexels.com/terms-and-conditions/  -->
<svg version="1.1" id="Capa_1" xmlns="http://www.w3.org/2000/svg" xmlns:xlink="http://www.w3.org/1999/xlink" x="0px" y="0px"
	 viewBox="0 0 1200 1200" enable-background="new 0 0 1200 1200" xml:space="preserve">
<g>
	<path fill="#502E2D" d="M434.364,190.339v58.974c0,9.49,8.02,17.184,17.913,17.184h308.358c9.893,0,17.913-7.694,17.913-17.184
		v-58.974c0-9.49-8.02-17.184-17.913-17.184H452.276C442.384,173.155,434.364,180.849,434.364,190.339z"/>
	<path fill="#502E2D" d="M380.63,293.05v293.789c0,14.67,12.388,26.554,27.68,26.554H804.6c15.292,0,27.68-11.884,27.68-26.554
		V293.05c0-14.67-12.388-26.554-27.68-26.554H408.31C393.018,266.497,380.63,278.38,380.63,293.05z"/>
	
		<rect x="357.394" y="362.625" transform="matrix(-1 4.285982e-11 -4.285982e-11 -1 738.0248 849.2402)" fill="#EAAB53" width="23.236" height="123.991"/>
	
		<rect x="330.879" y="352.872" transform="matrix(-1 4.285138e-11 -4.285138e-11 -1 688.6484 849.2402)" fill="#EAAB53" width="26.891" height="143.495"/>
	<rect x="306.319" y="340.334" fill="#EAAB53" width="26.213" height="168.572"/>
	<rect x="300.931" y="340.334" fill="#684C41" width="5.388" height="168.572"/>
	<polygon fill="#EAAB53" points="270.1,309.685 270.1,539.556 306.319,539.556 306.319,508.906 300.931,508.906 300.931,340.334 
		306.319,340.334 306.319,309.685 	"/>
	<rect x="263.245" y="309.685" fill="#684C41" width="6.855" height="229.871"/>
	<polygon fill="#EAAB53" points="218.138,286.001 218.138,563.239 270.1,563.239 270.1,539.556 263.245,539.556 263.245,309.685 
		270.1,309.685 270.1,286.001 	"/>
	<ellipse fill="#5CA1A3" cx="697.221" cy="128.017" rx="81.326" ry="78.017"/>
	<ellipse fill="#5CA1A3" cx="525.274" cy="128.017" rx="81.326" ry="78.017"/>
	
		<rect x="544.735" y="201.018" transform="matrix(-1 4.309918e-11 -4.309918e-11 -1 1282.6185 454.9766)" fill="#684C41" width="193.149" height="52.94"/>
	<path fill="#502E2D" d="M832.643,415.216v51.547h104.373c1.249,2.006,2.658,3.915,4.182,5.726
		c9.585,11.382,24.238,18.654,40.663,18.654V390.836c-16.425,0-31.078,7.272-40.663,18.654c-1.525,1.811-2.934,3.72-4.182,5.726
		H832.643z"/>
	<ellipse fill="#CCCCCC" cx="697.221" cy="128.017" rx="63.899" ry="61.299"/>
	<ellipse fill="#CCCCCC" cx="525.274" cy="128.017" rx="63.899" ry="61.299"/>
	<path fill="#684C41" d="M434.364,486.616v27.752c0,16.983,14.363,30.761,32.066,30.761h280.052
		c17.703,0,32.066-13.778,32.066-30.761v-27.752H434.364z"/>
	<path fill="#F1E3C9" d="M434.364,375.274v111.341h344.183V375.274c0-16.983-14.363-30.761-32.066-30.761H466.429
		C448.726,344.514,434.364,358.292,434.364,375.274z"/>
	<ellipse fill="#F1E3C9" cx="705.934" cy="227.488" rx="18.879" ry="18.111"/>
	<ellipse fill="#DD5243" cx="640.583" cy="227.488" rx="18.879" ry="18.111"/>
	<ellipse fill="#5CA1A3" cx="578.136" cy="227.488" rx="18.879" ry="18.111"/>
	<path fill="#DD5243" d="M621.704,415.565c0,28.811,14.029,54.472,35.885,71.051h117.022c1.351-1.017,2.658-2.062,3.936-3.149
		V375.274c0-16.983-14.363-30.761-32.066-30.761h-88.892C635.733,361.092,621.704,386.754,621.704,415.565z"/>
	<path fill="#EAAB38" d="M434.364,375.274v108.193c1.278,1.087,2.585,2.132,3.936,3.149h117.022
		c21.856-16.579,35.885-42.241,35.885-71.051c0-28.81-14.029-54.473-35.885-71.051h-88.892
		C448.726,344.514,434.364,358.292,434.364,375.274z"/>
	<ellipse fill="#F1E3C9" cx="719.005" cy="415.565" rx="42.115" ry="40.402"/>
	<ellipse fill="#F1E3C9" cx="496.81" cy="415.565" rx="42.115" ry="40.402"/>
	<ellipse fill="#684C41" cx="719.005" cy="415.565" rx="18.879" ry="18.111"/>
	<ellipse fill="#684C41" cx="493.906" cy="415.565" rx="18.879" ry="18.111"/>
	<ellipse fill="#A3A3A3" cx="697.221" cy="128.017" rx="53.733" ry="51.547"/>
	<ellipse fill="#A3A3A3" cx="525.274" cy="128.017" rx="53.733" ry="51.547"/>
	<path fill="#502E2D" d="M337.063,1140.703c0,4.98,4.248,9.055,9.44,9.055h10.788c0.685,0.309,1.512,0.334,2.194,0h27.681
		c5.192,0,9.44-4.075,9.44-9.055c0-4.981-4.248-9.056-9.44-9.056h-21.148l85.452-266.081l119.808-69.721l21.412,335.802h-19.636
		c-5.192,0-9.44,4.075-9.44,9.056c0,4.98,4.248,9.055,9.44,9.055h40.663c5.192,0,9.44-4.075,9.44-9.055
		c0-4.981-4.248-9.056-9.44-9.056h-18.603c2.591-57.475,9.737-214.851,15.797-338.148l128.502,74.78l84.58,263.368h-21.483
		c-5.192,0-9.44,4.075-9.44,9.056c0,4.98,4.248,9.055,9.44,9.055h28.016c0.682,0.334,1.509,0.309,2.194,0h10.452
		c5.192,0,9.44-4.075,9.44-9.055c0-4.981-4.248-9.056-9.44-9.056h-12.073l-91.393-488.998h3.26c8.387,0,15.249-6.583,15.249-14.628
		s-6.862-14.628-15.249-14.628H449.612c-8.387,0-15.249,6.583-15.249,14.628s6.862,14.628,15.249,14.628h0.691l-91.393,488.998
		h-12.408C341.311,1131.648,337.063,1135.723,337.063,1140.703z M732.106,845.531l-120.14-73.398
		c2.933-58.948,5.517-107.555,7.065-129.484h47.92l70.034,218.075L732.106,845.531z M610.915,793.407
		c0.352-7.168,0.701-14.224,1.045-21.135L610.915,793.407z M458.829,842.649l64.229-199.999h38.45l8.425,132.122L458.829,842.649z"
		/>
	<ellipse fill="#F1E3C9" cx="697.221" cy="128.017" rx="45.02" ry="43.188"/>
	<ellipse fill="#F1E3C9" cx="525.274" cy="128.017" rx="45.02" ry="43.188"/>
	<ellipse fill="#684C41" cx="697.221" cy="128.017" rx="21.784" ry="20.897"/>
	<ellipse fill="#684C41" cx="525.274" cy="128.017" rx="21.784" ry="20.897"/>
	<polygon fill="#684C41" points="263.158,539.556 218.138,563.239 270.419,563.239 270.419,539.556 	"/>
	<polygon fill="#684C41" points="300.916,508.906 270.419,539.556 306.725,539.556 306.725,508.906 	"/>
	<path fill="#684C41" d="M306.319,508.906c0.407,0,26.213-12.538,26.213-12.538v12.538H306.319z"/>
</g>
</svg>
